<?xml version="1.0" standalone="no"?>
<!DOCTYPE svg PUBLIC "-//W3C//DTD SVG 20010904//EN"
 "http://www.w3.org/TR/2001/REC-SVG-20010904/DTD/svg10.dtd">
<svg version="1.0" xmlns="http://www.w3.org/2000/svg"
 width="144.000000pt" height="144.000000pt" viewBox="0 0 144.000000 144.000000"
 preserveAspectRatio="xMidYMid meet">
<metadata>
Created by potrace 1.14, written by Peter Selinger 2001-2017
</metadata>
<g transform="translate(0.000000,144.000000) scale(0.100000,-0.100000)"
fill="#000000" stroke="none">
<path d="M870 1394 c-6 -14 -10 -38 -10 -53 l0 -28 -47 23 c-54 28 -135 32
-188 10 -33 -14 -35 -14 -35 3 0 25 -26 44 -50 38 -11 -3 -20 0 -20 5 0 17
-66 2 -136 -31 l-65 -30 17 -33 c9 -18 23 -41 32 -50 10 -13 11 -18 3 -18 -7
0 -37 -11 -67 -25 -41 -19 -62 -36 -84 -72 -17 -26 -30 -53 -30 -59 0 -10 -8
-8 -30 4 -30 17 -31 16 -50 -8 -11 -14 -20 -21 -20 -16 -1 41 -90 -121 -90
-164 0 -23 34 -40 81 -40 l29 0 -20 -32 c-10 -17 -17 -35 -14 -39 2 -4 0 -10
-6 -14 -15 -9 -12 -101 4 -140 14 -33 14 -35 -3 -35 -25 0 -44 -26 -38 -50 3
-11 0 -20 -5 -20 -27 0 36 -175 67 -186 10 -4 34 6 61 24 l44 32 0 -27 c0 -58
92 -163 143 -163 20 0 21 -4 5 -30 -10 -16 -10 -24 0 -38 6 -9 16 -26 21 -38
10 -22 136 -84 171 -84 23 0 40 34 40 79 l0 28 47 -23 c54 -28 135 -32 188
-10 33 14 35 14 35 -3 0 -25 26 -44 50 -38 11 3 20 0 20 -5 0 -17 66 -2 136
31 l65 30 -17 33 c-9 18 -23 41 -32 51 -10 12 -11 17 -3 17 7 0 37 11 67 25
41 19 62 36 84 72 17 26 30 53 30 59 0 10 8 8 30 -4 30 -17 31 -16 50 8 11 14
20 21 20 16 1 -41 90 121 90 164 0 23 -34 40 -81 40 l-29 0 20 32 c10 17 17
35 14 39 -2 4 0 10 6 14 15 9 12 101 -4 140 -14 33 -14 35 3 35 25 0 44 26 38
50 -3 11 0 20 5 20 27 0 -36 175 -67 186 -10 4 -34 -6 -61 -24 l-44 -32 0 27
c0 58 -92 163 -143 163 -20 0 -21 4 -5 30 10 16 10 24 0 38 -6 9 -16 26 -21
38 -10 22 -136 84 -171 84 -13 0 -24 -10 -30 -26z m-302 -51 c-5 -25 -28 -28
-28 -4 0 12 6 21 16 21 9 0 14 -7 12 -17z m-18 -72 c-6 -12 -12 -41 -13 -64
-2 -23 -6 -43 -10 -45 -4 -2 -23 10 -42 26 l-35 28 35 17 c19 9 35 21 35 26 0
12 31 43 37 37 3 -2 0 -14 -7 -25z m520 3 c0 -8 -9 -14 -20 -14 -22 0 -26 10
-8 28 13 13 28 7 28 -14z m-94 -30 c47 6 70 -8 29 -18 -13 -3 -41 -20 -60 -37
-20 -18 -37 -30 -39 -28 -2 2 -6 25 -9 52 -7 46 -6 47 15 36 12 -6 39 -9 64
-5z m-249 -50 c-3 -3 -12 -4 -19 -1 -8 3 -5 6 6 6 11 1 17 -2 13 -5z m106 -39
c136 -35 247 -125 308 -250 33 -68 34 -74 34 -190 0 -116 -1 -122 -34 -190
-142 -290 -523 -354 -751 -126 -35 34 -70 83 -91 126 -33 68 -34 74 -34 190 0
116 1 122 34 190 97 199 324 305 534 250z m242 -95 c3 -5 2 -10 -4 -10 -5 0
-13 5 -16 10 -3 6 -2 10 4 10 5 0 13 -4 16 -10z m-910 -20 c0 -22 -29 -18 -33
3 -3 14 1 18 15 15 10 -2 18 -10 18 -18z m215 16 c0 -3 -4 -8 -10 -11 -5 -3
-10 -1 -10 4 0 6 5 11 10 11 6 0 10 -2 10 -4z m-180 -71 c0 -8 16 -31 36 -50
20 -20 34 -38 32 -39 -4 -5 -98 -14 -98 -10 0 1 5 15 10 30 7 18 7 37 1 55
-10 28 -5 43 10 33 5 -3 9 -12 9 -19z m1048 -40 c7 -14 23 -30 37 -37 14 -6
25 -17 25 -23 0 -10 -10 -9 -42 2 -24 8 -55 12 -70 9 -16 -3 -28 -3 -28 0 0 8
54 74 61 74 3 0 11 -11 17 -25z m132 -59 c0 -21 -20 -30 -33 -17 -9 9 -8 14 3
21 21 14 30 12 30 -4z m-1283 -333 c4 -11 -26 -27 -35 -19 -2 3 -2 12 2 21 6
18 27 16 33 -2z m145 -19 c16 3 28 3 28 0 0 -8 -54 -74 -61 -74 -3 0 -11 11
-17 25 -7 14 -23 30 -37 37 -14 6 -25 17 -25 23 0 10 10 9 42 -2 24 -8 55 -12
70 -9z m1028 12 c0 -1 -5 -16 -10 -33 -7 -20 -8 -38 -1 -56 16 -41 -6 -42 -25
-1 -9 19 -28 42 -40 51 -34 22 -30 31 19 36 23 2 45 4 50 5 4 1 7 0 7 -2z m38
-159 c2 -10 -3 -17 -12 -17 -18 0 -29 16 -21 31 9 14 29 6 33 -14z m-228 -7
c0 -5 -5 -10 -11 -10 -5 0 -7 5 -4 10 3 6 8 10 11 10 2 0 4 -4 4 -10z m-695
-10 c3 -5 2 -10 -4 -10 -5 0 -13 5 -16 10 -3 6 -2 10 4 10 5 0 13 -4 16 -10z
m570 -172 c-18 -10 -36 -26 -40 -37 -3 -11 -13 -22 -21 -25 -12 -5 -14 -2 -9
11 14 34 25 94 20 104 -4 5 -3 14 0 19 4 6 23 -4 45 -22 l39 -33 -34 -17z
m-415 45 c0 -16 3 -39 7 -52 5 -22 4 -22 -17 -11 -14 7 -40 10 -66 6 -53 -7
-65 6 -20 22 18 7 43 23 56 37 30 32 40 32 40 -2z m197 -9 c-3 -3 -12 -4 -19
-1 -8 3 -5 6 6 6 11 1 17 -2 13 -5z m-327 -73 c0 -13 -26 -32 -33 -24 -14 13
-6 33 13 33 11 0 20 -4 20 -9z m490 -71 c0 -11 -7 -20 -15 -20 -15 0 -21 21
-8 33 12 13 23 7 23 -13z"/>
<path d="M700 1085 c-7 -8 -22 -15 -33 -15 -19 0 -19 -1 -4 -18 10 -10 17 -25
17 -33 0 -8 10 -14 23 -15 12 0 30 -4 40 -9 15 -6 17 -4 12 18 -4 14 -2 28 4
31 16 10 13 26 -4 26 -9 0 -18 7 -21 15 -4 8 -10 15 -14 15 -4 0 -13 -7 -20
-15z"/>
<path d="M596 868 c3 -79 8 -149 10 -156 9 -28 24 2 24 47 0 31 5 53 15 61 22
18 38 83 31 124 -8 43 -29 66 -62 66 l-24 0 6 -142z m51 38 c-10 -72 -27 -66
-27 10 1 64 2 68 16 49 10 -13 14 -33 11 -59z"/>
<path d="M776 1002 c-3 -4 -8 -72 -12 -150 l-7 -142 26 0 c38 0 77 51 77 102
0 23 -7 49 -15 58 -12 13 -13 22 -3 48 11 27 10 37 -2 60 -16 27 -53 41 -64
24z m44 -51 c0 -9 -7 -26 -15 -37 -14 -19 -14 -19 -15 1 0 32 12 65 21 59 5
-3 9 -13 9 -23z m-2 -93 c18 -18 14 -73 -8 -99 l-19 -24 -1 68 c0 67 5 78 28
55z"/>
<path d="M883 944 c4 -38 7 -102 7 -142 0 -55 3 -73 13 -70 6 3 13 23 15 46 2
29 8 42 18 42 10 0 14 -13 14 -46 0 -32 4 -44 13 -42 8 3 13 40 15 126 2 104
0 122 -13 122 -12 0 -15 -13 -15 -65 0 -58 -2 -65 -20 -65 -17 0 -19 8 -22 77
-2 55 -7 78 -17 81 -12 4 -13 -7 -8 -64z"/>
<path d="M521 982 c-25 -47 -44 -253 -23 -260 8 -2 12 9 12 32 0 29 4 36 20
36 17 0 20 -7 20 -40 0 -23 5 -40 11 -40 9 0 10 34 6 123 -7 158 -20 198 -46
149z m19 -107 c0 -30 -4 -55 -10 -55 -11 0 -13 52 -4 88 10 36 14 26 14 -33z"/>
<path d="M709 986 c-9 -9 2 -276 12 -276 5 0 9 59 9 140 0 123 -4 152 -21 136z"/>
<path d="M430 885 c0 -59 -3 -75 -15 -75 -24 0 -36 34 -24 70 13 37 3 53 -17
26 -17 -24 -18 -88 -2 -104 7 -7 22 -12 35 -12 20 0 23 -5 23 -36 0 -24 4 -34
13 -32 8 3 13 39 15 121 2 100 0 117 -13 117 -12 0 -15 -14 -15 -75z"/>
<path d="M1008 866 c-1 -47 -2 -96 -2 -108 -1 -12 5 -23 12 -25 8 -3 12 10 12
46 0 43 3 51 19 51 14 0 20 -10 25 -40 10 -62 30 -51 22 13 -8 63 -45 141 -68
145 -16 3 -18 -7 -20 -82z m46 9 c3 -9 0 -15 -9 -15 -8 0 -15 7 -15 15 0 8 4
15 9 15 5 0 11 -7 15 -15z"/>
<path d="M349 693 c-12 -33 -3 -114 17 -140 12 -16 13 -10 9 47 l-5 65 21 -58
c23 -63 38 -69 51 -19 5 17 13 34 19 38 7 4 9 -21 4 -85 -5 -61 -4 -91 3 -91
13 0 25 105 20 175 -4 58 -19 65 -47 21 l-19 -28 -20 44 c-25 58 -39 66 -53
31z"/>
<path d="M1024 708 c-11 -17 -18 -151 -10 -192 10 -54 26 -43 19 13 -5 43 -3
50 16 60 19 11 21 9 21 -14 0 -37 18 -30 26 10 12 66 -14 135 -51 135 -8 0
-17 -5 -21 -12z m27 -81 l-22 -22 6 30 c12 57 16 62 28 37 9 -19 7 -27 -12
-45z"/>
<path d="M852 693 c5 -26 38 -29 38 -4 0 15 -6 21 -21 21 -14 0 -19 -5 -17
-17z"/>
<path d="M966 698 c-3 -7 -10 -31 -17 -53 l-13 -40 -6 30 c-3 17 -10 28 -15
25 -13 -7 -9 -240 5 -254 7 -7 10 15 10 72 0 45 4 82 9 82 12 0 31 -56 31 -91
0 -16 5 -29 10 -29 15 0 12 66 -6 108 -15 36 -13 55 12 139 4 17 -15 28 -20
11z"/>
<path d="M810 675 c0 -8 7 -15 15 -15 8 0 15 7 15 15 0 8 -7 15 -15 15 -8 0
-15 -7 -15 -15z"/>
<path d="M735 668 c-8 -22 -25 -190 -25 -245 0 -41 4 -53 15 -53 12 0 15 15
15 71 0 67 1 70 23 67 20 -3 22 -9 25 -70 2 -52 6 -68 17 -68 19 0 20 54 1
152 -23 117 -56 186 -71 146z m32 -130 c-28 -18 -33 -2 -20 63 l7 34 13 -44
c10 -36 10 -47 0 -53z"/>
<path d="M532 653 c-14 -27 -22 -142 -14 -188 6 -31 12 -41 30 -43 18 -3 26 4
37 32 17 41 20 168 5 197 -13 24 -46 25 -58 2z m44 -39 c7 -27 -1 -129 -12
-157 -12 -32 -24 -6 -24 51 0 109 20 169 36 106z"/>
<path d="M612 658 c3 -7 14 -15 26 -18 l22 -5 -20 -33 c-21 -34 -19 -52 5 -52
20 0 29 -62 15 -105 -10 -32 -15 -36 -36 -31 -27 7 -32 -5 -9 -24 21 -17 51
-4 65 30 16 39 8 130 -13 145 -15 10 -14 15 8 48 14 20 25 41 25 46 0 6 -20
11 -46 11 -32 0 -44 -4 -42 -12z"/>
<path d="M844 563 c10 -135 18 -183 28 -183 9 0 1 246 -9 263 -2 4 -9 7 -15 7
-7 0 -9 -27 -4 -87z"/>
</g>
</svg>
